<svg width="728" height="118" viewBox="0 0 728 118" fill="none" xmlns="http://www.w3.org/2000/svg">
<path d="M3 75H53V70H58V50H53V45H38H23V35H58V25H8V30H3V50H8V55H38V65H3V75ZM112.961 70H117.961V25H97.9609V65H82.9609V25H62.9609V70H67.9609V75H112.961V70ZM172.922 70H177.922V55H172.922V45H177.922V30H172.922V25H142.922H122.922V75H172.922V70ZM142.922 55H157.922V65H142.922V55ZM142.922 35H157.922V45H142.922V35Z" fill="#F34E4E"/>
<path d="M252.805 75H302.805V70H307.805V50H302.805V45H287.805H272.805V35H307.805V25H257.805V30H252.805V50H257.805V55H287.805V65H252.805V75ZM362.766 70H367.766V25H347.766V65H332.766V25H312.766V70H317.766V75H362.766V70ZM392.727 55H407.727V75H427.727V55H422.727V45H427.727V30H422.727V25H407.727H392.727H372.727V75H392.727V55ZM392.727 35H407.727V45H392.727V35ZM467.688 70H472.688V65H477.688V60H482.688V55H487.688V25H467.688V50H462.688V55H457.688V60H452.688V25H432.688V75H467.688V70ZM492.648 35H507.648V65H492.648V75H542.648V65H527.648V35H542.648V25H492.648V35ZM582.629 70H587.629V65H592.629V60H597.629V55H602.629V25H582.629V50H577.629V55H572.629V60H567.629V25H547.629V75H582.629V70ZM657.59 70H662.59V30H657.59V25H612.59V30H607.59V70H612.59V75H657.59V70ZM642.59 55V65H627.59V35H642.59V45V55ZM687.551 55H702.551V75H722.551V55H717.551V45H722.551V30H717.551V25H702.551H687.551H667.551V75H687.551V55ZM687.551 35H702.551V45H687.551V35Z" fill="#F6D527"/>
<path d="M3 75H1V77H3V75ZM53 75V77H55V75H53ZM53 70V68H51V70H53ZM58 70V72H60V70H58ZM58 50H60V48H58V50ZM53 50H51V52H53V50ZM53 45H55V43H53V45ZM23 45H21V47H23V45ZM23 35V33H21V35H23ZM58 35V37H60V35H58ZM58 25H60V23H58V25ZM8 25V23H6V25H8ZM8 30V32H10V30H8ZM3 30V28H1V30H3ZM3 50H1V52H3V50ZM8 50H10V48H8V50ZM8 55H6V57H8V55ZM38 55H40V53H38V55ZM38 65V67H40V65H38ZM3 65V63H1V65H3ZM3 77H53V73H3V77ZM55 75V70H51V75H55ZM53 72H58V68H53V72ZM60 70V50H56V70H60ZM58 48H53V52H58V48ZM55 50V45H51V50H55ZM53 43H38V47H53V43ZM38 43H23V47H38V43ZM25 45V35H21V45H25ZM23 37H58V33H23V37ZM60 35V25H56V35H60ZM58 23H8V27H58V23ZM6 25V30H10V25H6ZM8 28H3V32H8V28ZM1 30V50H5V30H1ZM3 52H8V48H3V52ZM6 50V55H10V50H6ZM8 57H38V53H8V57ZM36 55V65H40V55H36ZM38 63H3V67H38V63ZM1 65V75H5V65H1ZM112.961 70V68H110.961V70H112.961ZM117.961 70V72H119.961V70H117.961ZM117.961 25H119.961V23H117.961V25ZM97.9609 25V23H95.9609V25H97.9609ZM97.9609 65V67H99.9609V65H97.9609ZM82.9609 65H80.9609V67H82.9609V65ZM82.9609 25H84.9609V23H82.9609V25ZM62.9609 25V23H60.9609V25H62.9609ZM62.9609 70H60.9609V72H62.9609V70ZM67.9609 70H69.9609V68H67.9609V70ZM67.9609 75H65.9609V77H67.9609V75ZM112.961 75V77H114.961V75H112.961ZM112.961 72H117.961V68H112.961V72ZM119.961 70V25H115.961V70H119.961ZM117.961 23H97.9609V27H117.961V23ZM95.9609 25V65H99.9609V25H95.9609ZM97.9609 63H82.9609V67H97.9609V63ZM84.9609 65V25H80.9609V65H84.9609ZM82.9609 23H62.9609V27H82.9609V23ZM60.9609 25V70H64.9609V25H60.9609ZM62.9609 72H67.9609V68H62.9609V72ZM65.9609 70V75H69.9609V70H65.9609ZM67.9609 77H112.961V73H67.9609V77ZM114.961 75V70H110.961V75H114.961ZM172.922 70V68H170.922V70H172.922ZM177.922 70V72H179.922V70H177.922ZM177.922 55H179.922V53H177.922V55ZM172.922 55H170.922V57H172.922V55ZM172.922 45V43H170.922V45H172.922ZM177.922 45V47H179.922V45H177.922ZM177.922 30H179.922V28H177.922V30ZM172.922 30H170.922V32H172.922V30ZM172.922 25H174.922V23H172.922V25ZM122.922 25V23H120.922V25H122.922ZM122.922 75H120.922V77H122.922V75ZM172.922 75V77H174.922V75H172.922ZM142.922 55V53H140.922V55H142.922ZM157.922 55H159.922V53H157.922V55ZM157.922 65V67H159.922V65H157.922ZM142.922 65H140.922V67H142.922V65ZM142.922 35V33H140.922V35H142.922ZM157.922 35H159.922V33H157.922V35ZM157.922 45V47H159.922V45H157.922ZM142.922 45H140.922V47H142.922V45ZM172.922 72H177.922V68H172.922V72ZM179.922 70V55H175.922V70H179.922ZM177.922 53H172.922V57H177.922V53ZM174.922 55V45H170.922V55H174.922ZM172.922 47H177.922V43H172.922V47ZM179.922 45V30H175.922V45H179.922ZM177.922 28H172.922V32H177.922V28ZM174.922 30V25H170.922V30H174.922ZM172.922 23H142.922V27H172.922V23ZM142.922 23H122.922V27H142.922V23ZM120.922 25V75H124.922V25H120.922ZM122.922 77H172.922V73H122.922V77ZM174.922 75V70H170.922V75H174.922ZM142.922 57H157.922V53H142.922V57ZM155.922 55V65H159.922V55H155.922ZM157.922 63H142.922V67H157.922V63ZM144.922 65V55H140.922V65H144.922ZM142.922 37H157.922V33H142.922V37ZM155.922 35V45H159.922V35H155.922ZM157.922 43H142.922V47H157.922V43ZM144.922 45V35H140.922V45H144.922ZM252.805 75H250.805V77H252.805V75ZM302.805 75V77H304.805V75H302.805ZM302.805 70V68H300.805V70H302.805ZM307.805 70V72H309.805V70H307.805ZM307.805 50H309.805V48H307.805V50ZM302.805 50H300.805V52H302.805V50ZM302.805 45H304.805V43H302.805V45ZM272.805 45H270.805V47H272.805V45ZM272.805 35V33H270.805V35H272.805ZM307.805 35V37H309.805V35H307.805ZM307.805 25H309.805V23H307.805V25ZM257.805 25V23H255.805V25H257.805ZM257.805 30V32H259.805V30H257.805ZM252.805 30V28H250.805V30H252.805ZM252.805 50H250.805V52H252.805V50ZM257.805 50H259.805V48H257.805V50ZM257.805 55H255.805V57H257.805V55ZM287.805 55H289.805V53H287.805V55ZM287.805 65V67H289.805V65H287.805ZM252.805 65V63H250.805V65H252.805ZM252.805 77H302.805V73H252.805V77ZM304.805 75V70H300.805V75H304.805ZM302.805 72H307.805V68H302.805V72ZM309.805 70V50H305.805V70H309.805ZM307.805 48H302.805V52H307.805V48ZM304.805 50V45H300.805V50H304.805ZM302.805 43H287.805V47H302.805V43ZM287.805 43H272.805V47H287.805V43ZM274.805 45V35H270.805V45H274.805ZM272.805 37H307.805V33H272.805V37ZM309.805 35V25H305.805V35H309.805ZM307.805 23H257.805V27H307.805V23ZM255.805 25V30H259.805V25H255.805ZM257.805 28H252.805V32H257.805V28ZM250.805 30V50H254.805V30H250.805ZM252.805 52H257.805V48H252.805V52ZM255.805 50V55H259.805V50H255.805ZM257.805 57H287.805V53H257.805V57ZM285.805 55V65H289.805V55H285.805ZM287.805 63H252.805V67H287.805V63ZM250.805 65V75H254.805V65H250.805ZM362.766 70V68H360.766V70H362.766ZM367.766 70V72H369.766V70H367.766ZM367.766 25H369.766V23H367.766V25ZM347.766 25V23H345.766V25H347.766ZM347.766 65V67H349.766V65H347.766ZM332.766 65H330.766V67H332.766V65ZM332.766 25H334.766V23H332.766V25ZM312.766 25V23H310.766V25H312.766ZM312.766 70H310.766V72H312.766V70ZM317.766 70H319.766V68H317.766V70ZM317.766 75H315.766V77H317.766V75ZM362.766 75V77H364.766V75H362.766ZM362.766 72H367.766V68H362.766V72ZM369.766 70V25H365.766V70H369.766ZM367.766 23H347.766V27H367.766V23ZM345.766 25V65H349.766V25H345.766ZM347.766 63H332.766V67H347.766V63ZM334.766 65V25H330.766V65H334.766ZM332.766 23H312.766V27H332.766V23ZM310.766 25V70H314.766V25H310.766ZM312.766 72H317.766V68H312.766V72ZM315.766 70V75H319.766V70H315.766ZM317.766 77H362.766V73H317.766V77ZM364.766 75V70H360.766V75H364.766ZM392.727 55V53H390.727V55H392.727ZM407.727 55H409.727V53H407.727V55ZM407.727 75H405.727V77H407.727V75ZM427.727 75V77H429.727V75H427.727ZM427.727 55H429.727V53H427.727V55ZM422.727 55H420.727V57H422.727V55ZM422.727 45V43H420.727V45H422.727ZM427.727 45V47H429.727V45H427.727ZM427.727 30H429.727V28H427.727V30ZM422.727 30H420.727V32H422.727V30ZM422.727 25H424.727V23H422.727V25ZM372.727 25V23H370.727V25H372.727ZM372.727 75H370.727V77H372.727V75ZM392.727 75V77H394.727V75H392.727ZM392.727 35V33H390.727V35H392.727ZM407.727 35H409.727V33H407.727V35ZM407.727 45V47H409.727V45H407.727ZM392.727 45H390.727V47H392.727V45ZM392.727 57H407.727V53H392.727V57ZM405.727 55V75H409.727V55H405.727ZM407.727 77H427.727V73H407.727V77ZM429.727 75V55H425.727V75H429.727ZM427.727 53H422.727V57H427.727V53ZM424.727 55V45H420.727V55H424.727ZM422.727 47H427.727V43H422.727V47ZM429.727 45V30H425.727V45H429.727ZM427.727 28H422.727V32H427.727V28ZM424.727 30V25H420.727V30H424.727ZM422.727 23H407.727V27H422.727V23ZM407.727 23H392.727V27H407.727V23ZM392.727 23H372.727V27H392.727V23ZM370.727 25V75H374.727V25H370.727ZM372.727 77H392.727V73H372.727V77ZM394.727 75V55H390.727V75H394.727ZM392.727 37H407.727V33H392.727V37ZM405.727 35V45H409.727V35H405.727ZM407.727 43H392.727V47H407.727V43ZM394.727 45V35H390.727V45H394.727ZM467.688 70V68H465.688V70H467.688ZM472.688 70V72H474.688V70H472.688ZM472.688 65V63H470.688V65H472.688ZM477.688 65V67H479.688V65H477.688ZM477.688 60V58H475.688V60H477.688ZM482.688 60V62H484.688V60H482.688ZM482.688 55V53H480.688V55H482.688ZM487.688 55V57H489.688V55H487.688ZM487.688 25H489.688V23H487.688V25ZM467.688 25V23H465.688V25H467.688ZM467.688 50V52H469.688V50H467.688ZM462.688 50V48H460.688V50H462.688ZM462.688 55V57H464.688V55H462.688ZM457.688 55V53H455.688V55H457.688ZM457.688 60V62H459.688V60H457.688ZM452.688 60H450.688V62H452.688V60ZM452.688 25H454.688V23H452.688V25ZM432.688 25V23H430.688V25H432.688ZM432.688 75H430.688V77H432.688V75ZM467.688 75V77H469.688V75H467.688ZM467.688 72H472.688V68H467.688V72ZM474.688 70V65H470.688V70H474.688ZM472.688 67H477.688V63H472.688V67ZM479.688 65V60H475.688V65H479.688ZM477.688 62H482.688V58H477.688V62ZM484.688 60V55H480.688V60H484.688ZM482.688 57H487.688V53H482.688V57ZM489.688 55V25H485.688V55H489.688ZM487.688 23H467.688V27H487.688V23ZM465.688 25V50H469.688V25H465.688ZM467.688 48H462.688V52H467.688V48ZM460.688 50V55H464.688V50H460.688ZM462.688 53H457.688V57H462.688V53ZM455.688 55V60H459.688V55H455.688ZM457.688 58H452.688V62H457.688V58ZM454.688 60V25H450.688V60H454.688ZM452.688 23H432.688V27H452.688V23ZM430.688 25V75H434.688V25H430.688ZM432.688 77H467.688V73H432.688V77ZM469.688 75V70H465.688V75H469.688ZM492.648 35H490.648V37H492.648V35ZM507.648 35H509.648V33H507.648V35ZM507.648 65V67H509.648V65H507.648ZM492.648 65V63H490.648V65H492.648ZM492.648 75H490.648V77H492.648V75ZM542.648 75V77H544.648V75H542.648ZM542.648 65H544.648V63H542.648V65ZM527.648 65H525.648V67H527.648V65ZM527.648 35V33H525.648V35H527.648ZM542.648 35V37H544.648V35H542.648ZM542.648 25H544.648V23H542.648V25ZM492.648 25V23H490.648V25H492.648ZM492.648 37H507.648V33H492.648V37ZM505.648 35V65H509.648V35H505.648ZM507.648 63H492.648V67H507.648V63ZM490.648 65V75H494.648V65H490.648ZM492.648 77H542.648V73H492.648V77ZM544.648 75V65H540.648V75H544.648ZM542.648 63H527.648V67H542.648V63ZM529.648 65V35H525.648V65H529.648ZM527.648 37H542.648V33H527.648V37ZM544.648 35V25H540.648V35H544.648ZM542.648 23H492.648V27H542.648V23ZM490.648 25V35H494.648V25H490.648ZM582.629 70V68H580.629V70H582.629ZM587.629 70V72H589.629V70H587.629ZM587.629 65V63H585.629V65H587.629ZM592.629 65V67H594.629V65H592.629ZM592.629 60V58H590.629V60H592.629ZM597.629 60V62H599.629V60H597.629ZM597.629 55V53H595.629V55H597.629ZM602.629 55V57H604.629V55H602.629ZM602.629 25H604.629V23H602.629V25ZM582.629 25V23H580.629V25H582.629ZM582.629 50V52H584.629V50H582.629ZM577.629 50V48H575.629V50H577.629ZM577.629 55V57H579.629V55H577.629ZM572.629 55V53H570.629V55H572.629ZM572.629 60V62H574.629V60H572.629ZM567.629 60H565.629V62H567.629V60ZM567.629 25H569.629V23H567.629V25ZM547.629 25V23H545.629V25H547.629ZM547.629 75H545.629V77H547.629V75ZM582.629 75V77H584.629V75H582.629ZM582.629 72H587.629V68H582.629V72ZM589.629 70V65H585.629V70H589.629ZM587.629 67H592.629V63H587.629V67ZM594.629 65V60H590.629V65H594.629ZM592.629 62H597.629V58H592.629V62ZM599.629 60V55H595.629V60H599.629ZM597.629 57H602.629V53H597.629V57ZM604.629 55V25H600.629V55H604.629ZM602.629 23H582.629V27H602.629V23ZM580.629 25V50H584.629V25H580.629ZM582.629 48H577.629V52H582.629V48ZM575.629 50V55H579.629V50H575.629ZM577.629 53H572.629V57H577.629V53ZM570.629 55V60H574.629V55H570.629ZM572.629 58H567.629V62H572.629V58ZM569.629 60V25H565.629V60H569.629ZM567.629 23H547.629V27H567.629V23ZM545.629 25V75H549.629V25H545.629ZM547.629 77H582.629V73H547.629V77ZM584.629 75V70H580.629V75H584.629ZM657.59 70V68H655.59V70H657.59ZM662.59 70V72H664.59V70H662.59ZM662.59 30H664.59V28H662.59V30ZM657.59 30H655.59V32H657.59V30ZM657.59 25H659.59V23H657.59V25ZM612.59 25V23H610.59V25H612.59ZM612.59 30V32H614.59V30H612.59ZM607.59 30V28H605.59V30H607.59ZM607.59 70H605.59V72H607.59V70ZM612.59 70H614.59V68H612.59V70ZM612.59 75H610.59V77H612.59V75ZM657.59 75V77H659.59V75H657.59ZM642.59 65V67H644.59V65H642.59ZM627.59 65H625.59V67H627.59V65ZM627.59 35V33H625.59V35H627.59ZM642.59 35H644.59V33H642.59V35ZM657.59 72H662.59V68H657.59V72ZM664.59 70V30H660.59V70H664.59ZM662.59 28H657.59V32H662.59V28ZM659.59 30V25H655.59V30H659.59ZM657.59 23H612.59V27H657.59V23ZM610.59 25V30H614.59V25H610.59ZM612.59 28H607.59V32H612.59V28ZM605.59 30V70H609.59V30H605.59ZM607.59 72H612.59V68H607.59V72ZM610.59 70V75H614.59V70H610.59ZM612.59 77H657.59V73H612.59V77ZM659.59 75V70H655.59V75H659.59ZM640.59 55V65H644.59V55H640.59ZM642.59 63H627.59V67H642.59V63ZM629.59 65V35H625.59V65H629.59ZM627.59 37H642.59V33H627.59V37ZM640.59 35V45H644.59V35H640.59ZM640.59 45V55H644.59V45H640.59ZM687.551 55V53H685.551V55H687.551ZM702.551 55H704.551V53H702.551V55ZM702.551 75H700.551V77H702.551V75ZM722.551 75V77H724.551V75H722.551ZM722.551 55H724.551V53H722.551V55ZM717.551 55H715.551V57H717.551V55ZM717.551 45V43H715.551V45H717.551ZM722.551 45V47H724.551V45H722.551ZM722.551 30H724.551V28H722.551V30ZM717.551 30H715.551V32H717.551V30ZM717.551 25H719.551V23H717.551V25ZM667.551 25V23H665.551V25H667.551ZM667.551 75H665.551V77H667.551V75ZM687.551 75V77H689.551V75H687.551ZM687.551 35V33H685.551V35H687.551ZM702.551 35H704.551V33H702.551V35ZM702.551 45V47H704.551V45H702.551ZM687.551 45H685.551V47H687.551V45ZM687.551 57H702.551V53H687.551V57ZM700.551 55V75H704.551V55H700.551ZM702.551 77H722.551V73H702.551V77ZM724.551 75V55H720.551V75H724.551ZM722.551 53H717.551V57H722.551V53ZM719.551 55V45H715.551V55H719.551ZM717.551 47H722.551V43H717.551V47ZM724.551 45V30H720.551V45H724.551ZM722.551 28H717.551V32H722.551V28ZM719.551 30V25H715.551V30H719.551ZM717.551 23H702.551V27H717.551V23ZM702.551 23H687.551V27H702.551V23ZM687.551 23H667.551V27H687.551V23ZM665.551 25V75H669.551V25H665.551ZM667.551 77H687.551V73H667.551V77ZM689.551 75V55H685.551V75H689.551ZM687.551 37H702.551V33H687.551V37ZM700.551 35V45H704.551V35H700.551ZM702.551 43H687.551V47H702.551V43ZM689.551 45V35H685.551V45H689.551Z" fill="black"/>
<path d="M18 109.2H19.8V102H18V100.2H9V103.8H12.6V107.4H7.2V96.6H19.8V93H1.8V94.8H0V109.2H1.8V111H18V109.2ZM23.3859 111H41.3859V107.4H28.7859V103.8H34.1859V100.2H28.7859V96.6H41.3859V93H23.3859V94.8H21.5859V109.2H23.3859V111ZM55.7719 96.6H61.1719V93H43.1719V96.6H48.5719V111H55.7719V96.6ZM88.1508 96.6H93.5508V93H75.5508V96.6H80.9508V111H88.1508V96.6ZM102.544 103.8H107.944V111H115.144V93H107.944V100.2H102.544V93H95.3438V111H102.544V103.8ZM118.73 111H136.73V107.4H124.13V103.8H129.53V100.2H124.13V96.6H136.73V93H118.73V94.8H116.93V109.2H118.73V111ZM158.302 109.2H160.102V107.4H161.902V105.6H163.702V107.4H165.502V109.2H167.302V111H174.502V93H167.302V102H165.502V100.2H163.702V98.4H161.902V100.2H160.102V102H158.302V93H151.102V111H158.302V109.2ZM183.509 103.8H188.909V111H196.109V94.8H194.309V93H188.909H178.109V94.8H176.309V111H183.509V103.8ZM183.509 96.6H188.909V100.2H183.509V96.6ZM197.895 111H215.895V109.2H217.695V102H215.895V100.2H210.495H205.095V96.6H217.695V93H199.695V94.8H197.895V102H199.695V103.8H210.495V107.4H197.895V111ZM232.08 96.6H237.48V93H219.48V96.6H224.88V111H232.08V96.6ZM241.073 111H259.073V107.4H246.473V103.8H251.873V100.2H246.473V96.6H259.073V93H241.073V94.8H239.273V109.2H241.073V111ZM291.445 109.2H293.245V103.8H291.445V100.2H293.245V94.8H291.445V93H280.645H273.445V111H291.445V109.2ZM280.645 103.8H286.045V107.4H280.645V103.8ZM280.645 96.6H286.045V100.2H280.645V96.6ZM296.831 111H314.831V107.4H302.231V103.8H307.631V100.2H302.231V96.6H314.831V93H296.831V94.8H295.031V109.2H296.831V111ZM323.817 103.8H329.217V100.2H323.817V96.6H336.417V93H323.817H318.417V94.8H316.617V111H323.817V103.8ZM356.203 109.2H358.003V94.8H356.203V93H340.003V94.8H338.203V109.2H340.003V111H356.203V109.2ZM350.803 103.8V107.4H345.403V96.6H350.803V100.2V103.8ZM366.989 103.8H372.389V111H379.589V103.8H377.789V100.2H379.589V94.8H377.789V93H372.389H366.989H359.789V111H366.989V103.8ZM366.989 96.6H372.389V100.2H366.989V96.6ZM383.175 111H401.175V107.4H388.575V103.8H393.975V100.2H388.575V96.6H401.175V93H383.175V94.8H381.375V109.2H383.175V111ZM415.547 100.2H417.347V102H419.147V103.8H422.747V111H429.947V103.8H433.547V102H435.347V100.2H437.147V93H429.947V98.4H428.147V100.2H424.547V98.4H422.747V93H415.547V100.2ZM456.961 109.2H458.761V94.8H456.961V93H440.761V94.8H438.961V109.2H440.761V111H456.961V109.2ZM451.561 103.8V107.4H446.161V96.6H451.561V100.2V103.8ZM478.547 109.2H480.347V93H473.147V107.4H467.747V93H460.547V109.2H462.347V111H478.547V109.2ZM512.719 109.2H514.519V102H512.719V100.2H503.719V103.8H507.319V107.4H501.919V96.6H514.519V93H496.519V94.8H494.719V109.2H496.519V111H512.719V109.2ZM518.105 111H536.105V107.4H523.505V103.8H528.905V100.2H523.505V96.6H536.105V93H518.105V94.8H516.305V109.2H518.105V111ZM550.491 96.6H555.891V93H537.891V96.6H543.291V111H550.491V96.6ZM577.47 109.2H579.27V107.4H581.07V105.6H582.87V107.4H584.67V109.2H586.47V111H593.67V93H586.47V102H584.67V100.2H582.87V98.4H581.07V100.2H579.27V102H577.47V93H570.27V111H577.47V109.2ZM602.677 103.8H608.077V111H615.277V94.8H613.477V93H608.077H597.277V94.8H595.477V111H602.677V103.8ZM602.677 96.6H608.077V100.2H602.677V96.6ZM617.062 111H635.062V109.2H636.863V102H635.062V100.2H629.663H624.263V96.6H636.863V93H618.863V94.8H617.062V102H618.863V103.8H629.663V107.4H617.062V111ZM651.248 96.6H656.648V93H638.648V96.6H644.048V111H651.248V96.6ZM660.241 111H678.241V107.4H665.641V103.8H671.041V100.2H665.641V96.6H678.241V93H660.241V94.8H658.441V109.2H660.241V111ZM696.227 109.2H698.027V107.4H699.827V96.6H698.027V94.8H696.227V93H692.627H690.827H680.027V111H696.227V109.2ZM690.827 98.4H692.627V105.6H690.827V107.4H687.227V96.6H690.827V98.4Z" fill="#F6D527"/>
<path d="M18 109.2V108.95H17.75V109.2H18ZM19.8 109.2V109.45H20.05V109.2H19.8ZM19.8 102H20.05V101.75H19.8V102ZM18 102H17.75V102.25H18V102ZM18 100.2H18.25V99.95H18V100.2ZM9 100.2V99.95H8.75V100.2H9ZM9 103.8H8.75V104.05H9V103.8ZM12.6 103.8H12.85V103.55H12.6V103.8ZM12.6 107.4V107.65H12.85V107.4H12.6ZM7.2 107.4H6.95V107.65H7.2V107.4ZM7.2 96.6V96.35H6.95V96.6H7.2ZM19.8 96.6V96.85H20.05V96.6H19.8ZM19.8 93H20.05V92.75H19.8V93ZM1.8 93V92.75H1.55V93H1.8ZM1.8 94.8V95.05H2.05V94.8H1.8ZM0 94.8V94.55H-0.25V94.8H0ZM0 109.2H-0.25V109.45H0V109.2ZM1.8 109.2H2.05V108.95H1.8V109.2ZM1.8 111H1.55V111.25H1.8V111ZM18 111V111.25H18.25V111H18ZM18 109.45H19.8V108.95H18V109.45ZM20.05 109.2V102H19.55V109.2H20.05ZM19.8 101.75H18V102.25H19.8V101.75ZM18.25 102V100.2H17.75V102H18.25ZM18 99.95H9V100.45H18V99.95ZM8.75 100.2V103.8H9.25V100.2H8.75ZM9 104.05H12.6V103.55H9V104.05ZM12.35 103.8V107.4H12.85V103.8H12.35ZM12.6 107.15H7.2V107.65H12.6V107.15ZM7.45 107.4V96.6H6.95V107.4H7.45ZM7.2 96.85H19.8V96.35H7.2V96.85ZM20.05 96.6V93H19.55V96.6H20.05ZM19.8 92.75H1.8V93.25H19.8V92.75ZM1.55 93V94.8H2.05V93H1.55ZM1.8 94.55H0V95.05H1.8V94.55ZM-0.25 94.8V109.2H0.25V94.8H-0.25ZM0 109.45H1.8V108.95H0V109.45ZM1.55 109.2V111H2.05V109.2H1.55ZM1.8 111.25H18V110.75H1.8V111.25ZM18.25 111V109.2H17.75V111H18.25ZM23.3859 111H23.1359V111.25H23.3859V111ZM41.3859 111V111.25H41.6359V111H41.3859ZM41.3859 107.4H41.6359V107.15H41.3859V107.4ZM28.7859 107.4H28.5359V107.65H28.7859V107.4ZM28.7859 103.8V103.55H28.5359V103.8H28.7859ZM34.1859 103.8V104.05H34.4359V103.8H34.1859ZM34.1859 100.2H34.4359V99.95H34.1859V100.2ZM28.7859 100.2H28.5359V100.45H28.7859V100.2ZM28.7859 96.6V96.35H28.5359V96.6H28.7859ZM41.3859 96.6V96.85H41.6359V96.6H41.3859ZM41.3859 93H41.6359V92.75H41.3859V93ZM23.3859 93V92.75H23.1359V93H23.3859ZM23.3859 94.8V95.05H23.6359V94.8H23.3859ZM21.5859 94.8V94.55H21.3359V94.8H21.5859ZM21.5859 109.2H21.3359V109.45H21.5859V109.2ZM23.3859 109.2H23.6359V108.95H23.3859V109.2ZM23.3859 111.25H41.3859V110.75H23.3859V111.25ZM41.6359 111V107.4H41.1359V111H41.6359ZM41.3859 107.15H28.7859V107.65H41.3859V107.15ZM29.0359 107.4V103.8H28.5359V107.4H29.0359ZM28.7859 104.05H34.1859V103.55H28.7859V104.05ZM34.4359 103.8V100.2H33.9359V103.8H34.4359ZM34.1859 99.95H28.7859V100.45H34.1859V99.95ZM29.0359 100.2V96.6H28.5359V100.2H29.0359ZM28.7859 96.85H41.3859V96.35H28.7859V96.85ZM41.6359 96.6V93H41.1359V96.6H41.6359ZM41.3859 92.75H23.3859V93.25H41.3859V92.75ZM23.1359 93V94.8H23.6359V93H23.1359ZM23.3859 94.55H21.5859V95.05H23.3859V94.55ZM21.3359 94.8V109.2H21.8359V94.8H21.3359ZM21.5859 109.45H23.3859V108.95H21.5859V109.45ZM23.1359 109.2V111H23.6359V109.2H23.1359ZM55.7719 96.6V96.35H55.5219V96.6H55.7719ZM61.1719 96.6V96.85H61.4219V96.6H61.1719ZM61.1719 93H61.4219V92.75H61.1719V93ZM43.1719 93V92.75H42.9219V93H43.1719ZM43.1719 96.6H42.9219V96.85H43.1719V96.6ZM48.5719 96.6H48.8219V96.35H48.5719V96.6ZM48.5719 111H48.3219V111.25H48.5719V111ZM55.7719 111V111.25H56.0219V111H55.7719ZM55.7719 96.85H61.1719V96.35H55.7719V96.85ZM61.4219 96.6V93H60.9219V96.6H61.4219ZM61.1719 92.75H43.1719V93.25H61.1719V92.75ZM42.9219 93V96.6H43.4219V93H42.9219ZM43.1719 96.85H48.5719V96.35H43.1719V96.85ZM48.3219 96.6V111H48.8219V96.6H48.3219ZM48.5719 111.25H55.7719V110.75H48.5719V111.25ZM56.0219 111V96.6H55.5219V111H56.0219ZM88.1508 96.6V96.35H87.9008V96.6H88.1508ZM93.5508 96.6V96.85H93.8008V96.6H93.5508ZM93.5508 93H93.8008V92.75H93.5508V93ZM75.5508 93V92.75H75.3008V93H75.5508ZM75.5508 96.6H75.3008V96.85H75.5508V96.6ZM80.9508 96.6H81.2008V96.35H80.9508V96.6ZM80.9508 111H80.7008V111.25H80.9508V111ZM88.1508 111V111.25H88.4008V111H88.1508ZM88.1508 96.85H93.5508V96.35H88.1508V96.85ZM93.8008 96.6V93H93.3008V96.6H93.8008ZM93.5508 92.75H75.5508V93.25H93.5508V92.75ZM75.3008 93V96.6H75.8008V93H75.3008ZM75.5508 96.85H80.9508V96.35H75.5508V96.85ZM80.7008 96.6V111H81.2008V96.6H80.7008ZM80.9508 111.25H88.1508V110.75H80.9508V111.25ZM88.4008 111V96.6H87.9008V111H88.4008ZM102.544 103.8V103.55H102.294V103.8H102.544ZM107.944 103.8H108.194V103.55H107.944V103.8ZM107.944 111H107.694V111.25H107.944V111ZM115.144 111V111.25H115.394V111H115.144ZM115.144 93H115.394V92.75H115.144V93ZM107.944 93V92.75H107.694V93H107.944ZM107.944 100.2V100.45H108.194V100.2H107.944ZM102.544 100.2H102.294V100.45H102.544V100.2ZM102.544 93H102.794V92.75H102.544V93ZM95.3438 93V92.75H95.0938V93H95.3438ZM95.3438 111H95.0938V111.25H95.3438V111ZM102.544 111V111.25H102.794V111H102.544ZM102.544 104.05H107.944V103.55H102.544V104.05ZM107.694 103.8V111H108.194V103.8H107.694ZM107.944 111.25H115.144V110.75H107.944V111.25ZM115.394 111V93H114.894V111H115.394ZM115.144 92.75H107.944V93.25H115.144V92.75ZM107.694 93V100.2H108.194V93H107.694ZM107.944 99.95H102.544V100.45H107.944V99.95ZM102.794 100.2V93H102.294V100.2H102.794ZM102.544 92.75H95.3438V93.25H102.544V92.75ZM95.0938 93V111H95.5938V93H95.0938ZM95.3438 111.25H102.544V110.75H95.3438V111.25ZM102.794 111V103.8H102.294V111H102.794ZM118.73 111H118.48V111.25H118.73V111ZM136.73 111V111.25H136.98V111H136.73ZM136.73 107.4H136.98V107.15H136.73V107.4ZM124.13 107.4H123.88V107.65H124.13V107.4ZM124.13 103.8V103.55H123.88V103.8H124.13ZM129.53 103.8V104.05H129.78V103.8H129.53ZM129.53 100.2H129.78V99.95H129.53V100.2ZM124.13 100.2H123.88V100.45H124.13V100.2ZM124.13 96.6V96.35H123.88V96.6H124.13ZM136.73 96.6V96.85H136.98V96.6H136.73ZM136.73 93H136.98V92.75H136.73V93ZM118.73 93V92.75H118.48V93H118.73ZM118.73 94.8V95.05H118.98V94.8H118.73ZM116.93 94.8V94.55H116.68V94.8H116.93ZM116.93 109.2H116.68V109.45H116.93V109.2ZM118.73 109.2H118.98V108.95H118.73V109.2ZM118.73 111.25H136.73V110.75H118.73V111.25ZM136.98 111V107.4H136.48V111H136.98ZM136.73 107.15H124.13V107.65H136.73V107.15ZM124.38 107.4V103.8H123.88V107.4H124.38ZM124.13 104.05H129.53V103.55H124.13V104.05ZM129.78 103.8V100.2H129.28V103.8H129.78ZM129.53 99.95H124.13V100.45H129.53V99.95ZM124.38 100.2V96.6H123.88V100.2H124.38ZM124.13 96.85H136.73V96.35H124.13V96.85ZM136.98 96.6V93H136.48V96.6H136.98ZM136.73 92.75H118.73V93.25H136.73V92.75ZM118.48 93V94.8H118.98V93H118.48ZM118.73 94.55H116.93V95.05H118.73V94.55ZM116.68 94.8V109.2H117.18V94.8H116.68ZM116.93 109.45H118.73V108.95H116.93V109.45ZM118.48 109.2V111H118.98V109.2H118.48ZM158.302 109.2V108.95H158.052V109.2H158.302ZM160.102 109.2V109.45H160.352V109.2H160.102ZM160.102 107.4V107.15H159.852V107.4H160.102ZM161.902 107.4V107.65H162.152V107.4H161.902ZM161.902 105.6V105.35H161.652V105.6H161.902ZM163.702 105.6H163.952V105.35H163.702V105.6ZM163.702 107.4H163.452V107.65H163.702V107.4ZM165.502 107.4H165.752V107.15H165.502V107.4ZM165.502 109.2H165.252V109.45H165.502V109.2ZM167.302 109.2H167.552V108.95H167.302V109.2ZM167.302 111H167.052V111.25H167.302V111ZM174.502 111V111.25H174.752V111H174.502ZM174.502 93H174.752V92.75H174.502V93ZM167.302 93V92.75H167.052V93H167.302ZM167.302 102V102.25H167.552V102H167.302ZM165.502 102H165.252V102.25H165.502V102ZM165.502 100.2H165.752V99.95H165.502V100.2ZM163.702 100.2H163.452V100.45H163.702V100.2ZM163.702 98.4H163.952V98.15H163.702V98.4ZM161.902 98.4V98.15H161.652V98.4H161.902ZM161.902 100.2V100.45H162.152V100.2H161.902ZM160.102 100.2V99.95H159.852V100.2H160.102ZM160.102 102V102.25H160.352V102H160.102ZM158.302 102H158.052V102.25H158.302V102ZM158.302 93H158.552V92.75H158.302V93ZM151.102 93V92.75H150.852V93H151.102ZM151.102 111H150.852V111.25H151.102V111ZM158.302 111V111.25H158.552V111H158.302ZM158.302 109.45H160.102V108.95H158.302V109.45ZM160.352 109.2V107.4H159.852V109.2H160.352ZM160.102 107.65H161.902V107.15H160.102V107.65ZM162.152 107.4V105.6H161.652V107.4H162.152ZM161.902 105.85H163.702V105.35H161.902V105.85ZM163.452 105.6V107.4H163.952V105.6H163.452ZM163.702 107.65H165.502V107.15H163.702V107.65ZM165.252 107.4V109.2H165.752V107.4H165.252ZM165.502 109.45H167.302V108.95H165.502V109.45ZM167.052 109.2V111H167.552V109.2H167.052ZM167.302 111.25H174.502V110.75H167.302V111.25ZM174.752 111V93H174.252V111H174.752ZM174.502 92.75H167.302V93.25H174.502V92.75ZM167.052 93V102H167.552V93H167.052ZM167.302 101.75H165.502V102.25H167.302V101.75ZM165.752 102V100.2H165.252V102H165.752ZM165.502 99.95H163.702V100.45H165.502V99.95ZM163.952 100.2V98.4H163.452V100.2H163.952ZM163.702 98.15H161.902V98.65H163.702V98.15ZM161.652 98.4V100.2H162.152V98.4H161.652ZM161.902 99.95H160.102V100.45H161.902V99.95ZM159.852 100.2V102H160.352V100.2H159.852ZM160.102 101.75H158.302V102.25H160.102V101.75ZM158.552 102V93H158.052V102H158.552ZM158.302 92.75H151.102V93.25H158.302V92.75ZM150.852 93V111H151.352V93H150.852ZM151.102 111.25H158.302V110.75H151.102V111.25ZM158.552 111V109.2H158.052V111H158.552ZM183.509 103.8V103.55H183.259V103.8H183.509ZM188.909 103.8H189.159V103.55H188.909V103.8ZM188.909 111H188.659V111.25H188.909V111ZM196.109 111V111.25H196.359V111H196.109ZM196.109 94.8H196.359V94.55H196.109V94.8ZM194.309 94.8H194.059V95.05H194.309V94.8ZM194.309 93H194.559V92.75H194.309V93ZM178.109 93V92.75H177.859V93H178.109ZM178.109 94.8V95.05H178.359V94.8H178.109ZM176.309 94.8V94.55H176.059V94.8H176.309ZM176.309 111H176.059V111.25H176.309V111ZM183.509 111V111.25H183.759V111H183.509ZM183.509 96.6V96.35H183.259V96.6H183.509ZM188.909 96.6H189.159V96.35H188.909V96.6ZM188.909 100.2V100.45H189.159V100.2H188.909ZM183.509 100.2H183.259V100.45H183.509V100.2ZM183.509 104.05H188.909V103.55H183.509V104.05ZM188.659 103.8V111H189.159V103.8H188.659ZM188.909 111.25H196.109V110.75H188.909V111.25ZM196.359 111V94.8H195.859V111H196.359ZM196.109 94.55H194.309V95.05H196.109V94.55ZM194.559 94.8V93H194.059V94.8H194.559ZM194.309 92.75H188.909V93.25H194.309V92.75ZM188.909 92.75H178.109V93.25H188.909V92.75ZM177.859 93V94.8H178.359V93H177.859ZM178.109 94.55H176.309V95.05H178.109V94.55ZM176.059 94.8V111H176.559V94.8H176.059ZM176.309 111.25H183.509V110.75H176.309V111.25ZM183.759 111V103.8H183.259V111H183.759ZM183.509 96.85H188.909V96.35H183.509V96.85ZM188.659 96.6V100.2H189.159V96.6H188.659ZM188.909 99.95H183.509V100.45H188.909V99.95ZM183.759 100.2V96.6H183.259V100.2H183.759ZM197.895 111H197.645V111.25H197.895V111ZM215.895 111V111.25H216.145V111H215.895ZM215.895 109.2V108.95H215.645V109.2H215.895ZM217.695 109.2V109.45H217.945V109.2H217.695ZM217.695 102H217.945V101.75H217.695V102ZM215.895 102H215.645V102.25H215.895V102ZM215.895 100.2H216.145V99.95H215.895V100.2ZM205.095 100.2H204.845V100.45H205.095V100.2ZM205.095 96.6V96.35H204.845V96.6H205.095ZM217.695 96.6V96.85H217.945V96.6H217.695ZM217.695 93H217.945V92.75H217.695V93ZM199.695 93V92.75H199.445V93H199.695ZM199.695 94.8V95.05H199.945V94.8H199.695ZM197.895 94.8V94.55H197.645V94.8H197.895ZM197.895 102H197.645V102.25H197.895V102ZM199.695 102H199.945V101.75H199.695V102ZM199.695 103.8H199.445V104.05H199.695V103.8ZM210.495 103.8H210.745V103.55H210.495V103.8ZM210.495 107.4V107.65H210.745V107.4H210.495ZM197.895 107.4V107.15H197.645V107.4H197.895ZM197.895 111.25H215.895V110.75H197.895V111.25ZM216.145 111V109.2H215.645V111H216.145ZM215.895 109.45H217.695V108.95H215.895V109.45ZM217.945 109.2V102H217.445V109.2H217.945ZM217.695 101.75H215.895V102.25H217.695V101.75ZM216.145 102V100.2H215.645V102H216.145ZM215.895 99.95H210.495V100.45H215.895V99.95ZM210.495 99.95H205.095V100.45H210.495V99.95ZM205.345 100.2V96.6H204.845V100.2H205.345ZM205.095 96.85H217.695V96.35H205.095V96.85ZM217.945 96.6V93H217.445V96.6H217.945ZM217.695 92.75H199.695V93.25H217.695V92.75ZM199.445 93V94.8H199.945V93H199.445ZM199.695 94.55H197.895V95.05H199.695V94.55ZM197.645 94.8V102H198.145V94.8H197.645ZM197.895 102.25H199.695V101.75H197.895V102.25ZM199.445 102V103.8H199.945V102H199.445ZM199.695 104.05H210.495V103.55H199.695V104.05ZM210.245 103.8V107.4H210.745V103.8H210.245ZM210.495 107.15H197.895V107.65H210.495V107.15ZM197.645 107.4V111H198.145V107.4H197.645ZM232.08 96.6V96.35H231.83V96.6H232.08ZM237.48 96.6V96.85H237.73V96.6H237.48ZM237.48 93H237.73V92.75H237.48V93ZM219.48 93V92.75H219.23V93H219.48ZM219.48 96.6H219.23V96.85H219.48V96.6ZM224.88 96.6H225.13V96.35H224.88V96.6ZM224.88 111H224.63V111.25H224.88V111ZM232.08 111V111.25H232.33V111H232.08ZM232.08 96.85H237.48V96.35H232.08V96.85ZM237.73 96.6V93H237.23V96.6H237.73ZM237.48 92.75H219.48V93.25H237.48V92.75ZM219.23 93V96.6H219.73V93H219.23ZM219.48 96.85H224.88V96.35H219.48V96.85ZM224.63 96.6V111H225.13V96.6H224.63ZM224.88 111.25H232.08V110.75H224.88V111.25ZM232.33 111V96.6H231.83V111H232.33ZM241.073 111H240.823V111.25H241.073V111ZM259.073 111V111.25H259.323V111H259.073ZM259.073 107.4H259.323V107.15H259.073V107.4ZM246.473 107.4H246.223V107.65H246.473V107.4ZM246.473 103.8V103.55H246.223V103.8H246.473ZM251.873 103.8V104.05H252.123V103.8H251.873ZM251.873 100.2H252.123V99.95H251.873V100.2ZM246.473 100.2H246.223V100.45H246.473V100.2ZM246.473 96.6V96.35H246.223V96.6H246.473ZM259.073 96.6V96.85H259.323V96.6H259.073ZM259.073 93H259.323V92.75H259.073V93ZM241.073 93V92.75H240.823V93H241.073ZM241.073 94.8V95.05H241.323V94.8H241.073ZM239.273 94.8V94.55H239.023V94.8H239.273ZM239.273 109.2H239.023V109.45H239.273V109.2ZM241.073 109.2H241.323V108.95H241.073V109.2ZM241.073 111.25H259.073V110.75H241.073V111.25ZM259.323 111V107.4H258.823V111H259.323ZM259.073 107.15H246.473V107.65H259.073V107.15ZM246.723 107.4V103.8H246.223V107.4H246.723ZM246.473 104.05H251.873V103.55H246.473V104.05ZM252.123 103.8V100.2H251.623V103.8H252.123ZM251.873 99.95H246.473V100.45H251.873V99.95ZM246.723 100.2V96.6H246.223V100.2H246.723ZM246.473 96.85H259.073V96.35H246.473V96.85ZM259.323 96.6V93H258.823V96.6H259.323ZM259.073 92.75H241.073V93.25H259.073V92.75ZM240.823 93V94.8H241.323V93H240.823ZM241.073 94.55H239.273V95.05H241.073V94.55ZM239.023 94.8V109.2H239.523V94.8H239.023ZM239.273 109.45H241.073V108.95H239.273V109.45ZM240.823 109.2V111H241.323V109.2H240.823ZM291.445 109.2V108.95H291.195V109.2H291.445ZM293.245 109.2V109.45H293.495V109.2H293.245ZM293.245 103.8H293.495V103.55H293.245V103.8ZM291.445 103.8H291.195V104.05H291.445V103.8ZM291.445 100.2V99.95H291.195V100.2H291.445ZM293.245 100.2V100.45H293.495V100.2H293.245ZM293.245 94.8H293.495V94.55H293.245V94.8ZM291.445 94.8H291.195V95.05H291.445V94.8ZM291.445 93H291.695V92.75H291.445V93ZM273.445 93V92.75H273.195V93H273.445ZM273.445 111H273.195V111.25H273.445V111ZM291.445 111V111.25H291.695V111H291.445ZM280.645 103.8V103.55H280.395V103.8H280.645ZM286.045 103.8H286.295V103.55H286.045V103.8ZM286.045 107.4V107.65H286.295V107.4H286.045ZM280.645 107.4H280.395V107.65H280.645V107.4ZM280.645 96.6V96.35H280.395V96.6H280.645ZM286.045 96.6H286.295V96.35H286.045V96.6ZM286.045 100.2V100.45H286.295V100.2H286.045ZM280.645 100.2H280.395V100.45H280.645V100.2ZM291.445 109.45H293.245V108.95H291.445V109.45ZM293.495 109.2V103.8H292.995V109.2H293.495ZM293.245 103.55H291.445V104.05H293.245V103.55ZM291.695 103.8V100.2H291.195V103.8H291.695ZM291.445 100.45H293.245V99.95H291.445V100.45ZM293.495 100.2V94.8H292.995V100.2H293.495ZM293.245 94.55H291.445V95.05H293.245V94.55ZM291.695 94.8V93H291.195V94.8H291.695ZM291.445 92.75H280.645V93.25H291.445V92.75ZM280.645 92.75H273.445V93.25H280.645V92.75ZM273.195 93V111H273.695V93H273.195ZM273.445 111.25H291.445V110.75H273.445V111.25ZM291.695 111V109.2H291.195V111H291.695ZM280.645 104.05H286.045V103.55H280.645V104.05ZM285.795 103.8V107.4H286.295V103.8H285.795ZM286.045 107.15H280.645V107.65H286.045V107.15ZM280.895 107.4V103.8H280.395V107.4H280.895ZM280.645 96.85H286.045V96.35H280.645V96.85ZM285.795 96.6V100.2H286.295V96.6H285.795ZM286.045 99.95H280.645V100.45H286.045V99.95ZM280.895 100.2V96.6H280.395V100.2H280.895ZM296.831 111H296.581V111.25H296.831V111ZM314.831 111V111.25H315.081V111H314.831ZM314.831 107.4H315.081V107.15H314.831V107.4ZM302.231 107.4H301.981V107.65H302.231V107.4ZM302.231 103.8V103.55H301.981V103.8H302.231ZM307.631 103.8V104.05H307.881V103.8H307.631ZM307.631 100.2H307.881V99.95H307.631V100.2ZM302.231 100.2H301.981V100.45H302.231V100.2ZM302.231 96.6V96.35H301.981V96.6H302.231ZM314.831 96.6V96.85H315.081V96.6H314.831ZM314.831 93H315.081V92.75H314.831V93ZM296.831 93V92.75H296.581V93H296.831ZM296.831 94.8V95.05H297.081V94.8H296.831ZM295.031 94.8V94.55H294.781V94.8H295.031ZM295.031 109.2H294.781V109.45H295.031V109.2ZM296.831 109.2H297.081V108.95H296.831V109.2ZM296.831 111.25H314.831V110.75H296.831V111.25ZM315.081 111V107.4H314.581V111H315.081ZM314.831 107.15H302.231V107.65H314.831V107.15ZM302.481 107.4V103.8H301.981V107.4H302.481ZM302.231 104.05H307.631V103.55H302.231V104.05ZM307.881 103.8V100.2H307.381V103.8H307.881ZM307.631 99.95H302.231V100.45H307.631V99.95ZM302.481 100.2V96.6H301.981V100.2H302.481ZM302.231 96.85H314.831V96.35H302.231V96.85ZM315.081 96.6V93H314.581V96.6H315.081ZM314.831 92.75H296.831V93.25H314.831V92.75ZM296.581 93V94.8H297.081V93H296.581ZM296.831 94.55H295.031V95.05H296.831V94.55ZM294.781 94.8V109.2H295.281V94.8H294.781ZM295.031 109.45H296.831V108.95H295.031V109.45ZM296.581 109.2V111H297.081V109.2H296.581ZM323.817 103.8V103.55H323.567V103.8H323.817ZM329.217 103.8V104.05H329.467V103.8H329.217ZM329.217 100.2H329.467V99.95H329.217V100.2ZM323.817 100.2H323.567V100.45H323.817V100.2ZM323.817 96.6V96.35H323.567V96.6H323.817ZM336.417 96.6V96.85H336.667V96.6H336.417ZM336.417 93H336.667V92.75H336.417V93ZM318.417 93V92.75H318.167V93H318.417ZM318.417 94.8V95.05H318.667V94.8H318.417ZM316.617 94.8V94.55H316.367V94.8H316.617ZM316.617 111H316.367V111.25H316.617V111ZM323.817 111V111.25H324.067V111H323.817ZM323.817 104.05H329.217V103.55H323.817V104.05ZM329.467 103.8V100.2H328.967V103.8H329.467ZM329.217 99.95H323.817V100.45H329.217V99.95ZM324.067 100.2V96.6H323.567V100.2H324.067ZM323.817 96.85H336.417V96.35H323.817V96.85ZM336.667 96.6V93H336.167V96.6H336.667ZM336.417 92.75H323.817V93.25H336.417V92.75ZM323.817 92.75H318.417V93.25H323.817V92.75ZM318.167 93V94.8H318.667V93H318.167ZM318.417 94.55H316.617V95.05H318.417V94.55ZM316.367 94.8V111H316.867V94.8H316.367ZM316.617 111.25H323.817V110.75H316.617V111.25ZM324.067 111V103.8H323.567V111H324.067ZM356.203 109.2V108.95H355.953V109.2H356.203ZM358.003 109.2V109.45H358.253V109.2H358.003ZM358.003 94.8H358.253V94.55H358.003V94.8ZM356.203 94.8H355.953V95.05H356.203V94.8ZM356.203 93H356.453V92.75H356.203V93ZM340.003 93V92.75H339.753V93H340.003ZM340.003 94.8V95.05H340.253V94.8H340.003ZM338.203 94.8V94.55H337.953V94.8H338.203ZM338.203 109.2H337.953V109.45H338.203V109.2ZM340.003 109.2H340.253V108.95H340.003V109.2ZM340.003 111H339.753V111.25H340.003V111ZM356.203 111V111.25H356.453V111H356.203ZM350.803 107.4V107.65H351.053V107.4H350.803ZM345.403 107.4H345.153V107.65H345.403V107.4ZM345.403 96.6V96.35H345.153V96.6H345.403ZM350.803 96.6H351.053V96.35H350.803V96.6ZM356.203 109.45H358.003V108.95H356.203V109.45ZM358.253 109.2V94.8H357.753V109.2H358.253ZM358.003 94.55H356.203V95.05H358.003V94.55ZM356.453 94.8V93H355.953V94.8H356.453ZM356.203 92.75H340.003V93.25H356.203V92.75ZM339.753 93V94.8H340.253V93H339.753ZM340.003 94.55H338.203V95.05H340.003V94.55ZM337.953 94.8V109.2H338.453V94.8H337.953ZM338.203 109.45H340.003V108.95H338.203V109.45ZM339.753 109.2V111H340.253V109.2H339.753ZM340.003 111.25H356.203V110.75H340.003V111.25ZM356.453 111V109.2H355.953V111H356.453ZM350.553 103.8V107.4H351.053V103.8H350.553ZM350.803 107.15H345.403V107.65H350.803V107.15ZM345.653 107.4V96.6H345.153V107.4H345.653ZM345.403 96.85H350.803V96.35H345.403V96.85ZM350.553 96.6V100.2H351.053V96.6H350.553ZM350.553 100.2V103.8H351.053V100.2H350.553ZM366.989 103.8V103.55H366.739V103.8H366.989ZM372.389 103.8H372.639V103.55H372.389V103.8ZM372.389 111H372.139V111.25H372.389V111ZM379.589 111V111.25H379.839V111H379.589ZM379.589 103.8H379.839V103.55H379.589V103.8ZM377.789 103.8H377.539V104.05H377.789V103.8ZM377.789 100.2V99.95H377.539V100.2H377.789ZM379.589 100.2V100.45H379.839V100.2H379.589ZM379.589 94.8H379.839V94.55H379.589V94.8ZM377.789 94.8H377.539V95.05H377.789V94.8ZM377.789 93H378.039V92.75H377.789V93ZM359.789 93V92.75H359.539V93H359.789ZM359.789 111H359.539V111.25H359.789V111ZM366.989 111V111.25H367.239V111H366.989ZM366.989 96.6V96.35H366.739V96.6H366.989ZM372.389 96.6H372.639V96.35H372.389V96.6ZM372.389 100.2V100.45H372.639V100.2H372.389ZM366.989 100.2H366.739V100.45H366.989V100.2ZM366.989 104.05H372.389V103.55H366.989V104.05ZM372.139 103.8V111H372.639V103.8H372.139ZM372.389 111.25H379.589V110.75H372.389V111.25ZM379.839 111V103.8H379.339V111H379.839ZM379.589 103.55H377.789V104.05H379.589V103.55ZM378.039 103.8V100.2H377.539V103.8H378.039ZM377.789 100.45H379.589V99.95H377.789V100.45ZM379.839 100.2V94.8H379.339V100.2H379.839ZM379.589 94.55H377.789V95.05H379.589V94.55ZM378.039 94.8V93H377.539V94.8H378.039ZM377.789 92.75H372.389V93.25H377.789V92.75ZM372.389 92.75H366.989V93.25H372.389V92.75ZM366.989 92.75H359.789V93.25H366.989V92.75ZM359.539 93V111H360.039V93H359.539ZM359.789 111.25H366.989V110.75H359.789V111.25ZM367.239 111V103.8H366.739V111H367.239ZM366.989 96.85H372.389V96.35H366.989V96.85ZM372.139 96.6V100.2H372.639V96.6H372.139ZM372.389 99.95H366.989V100.45H372.389V99.95ZM367.239 100.2V96.6H366.739V100.2H367.239ZM383.175 111H382.925V111.25H383.175V111ZM401.175 111V111.25H401.425V111H401.175ZM401.175 107.4H401.425V107.15H401.175V107.4ZM388.575 107.4H388.325V107.65H388.575V107.4ZM388.575 103.8V103.55H388.325V103.8H388.575ZM393.975 103.8V104.05H394.225V103.8H393.975ZM393.975 100.2H394.225V99.95H393.975V100.2ZM388.575 100.2H388.325V100.45H388.575V100.2ZM388.575 96.6V96.35H388.325V96.6H388.575ZM401.175 96.6V96.85H401.425V96.6H401.175ZM401.175 93H401.425V92.75H401.175V93ZM383.175 93V92.75H382.925V93H383.175ZM383.175 94.8V95.05H383.425V94.8H383.175ZM381.375 94.8V94.55H381.125V94.8H381.375ZM381.375 109.2H381.125V109.45H381.375V109.2ZM383.175 109.2H383.425V108.95H383.175V109.2ZM383.175 111.25H401.175V110.75H383.175V111.25ZM401.425 111V107.4H400.925V111H401.425ZM401.175 107.15H388.575V107.65H401.175V107.15ZM388.825 107.4V103.8H388.325V107.4H388.825ZM388.575 104.05H393.975V103.55H388.575V104.05ZM394.225 103.8V100.2H393.725V103.8H394.225ZM393.975 99.95H388.575V100.45H393.975V99.95ZM388.825 100.2V96.6H388.325V100.2H388.825ZM388.575 96.85H401.175V96.35H388.575V96.85ZM401.425 96.6V93H400.925V96.6H401.425ZM401.175 92.75H383.175V93.25H401.175V92.75ZM382.925 93V94.8H383.425V93H382.925ZM383.175 94.55H381.375V95.05H383.175V94.55ZM381.125 94.8V109.2H381.625V94.8H381.125ZM381.375 109.45H383.175V108.95H381.375V109.45ZM382.925 109.2V111H383.425V109.2H382.925ZM415.547 100.2H415.297V100.45H415.547V100.2ZM417.347 100.2H417.597V99.95H417.347V100.2ZM417.347 102H417.097V102.25H417.347V102ZM419.147 102H419.397V101.75H419.147V102ZM419.147 103.8H418.897V104.05H419.147V103.8ZM422.747 103.8H422.997V103.55H422.747V103.8ZM422.747 111H422.497V111.25H422.747V111ZM429.947 111V111.25H430.197V111H429.947ZM429.947 103.8V103.55H429.697V103.8H429.947ZM433.547 103.8V104.05H433.797V103.8H433.547ZM433.547 102V101.75H433.297V102H433.547ZM435.347 102V102.25H435.597V102H435.347ZM435.347 100.2V99.95H435.097V100.2H435.347ZM437.147 100.2V100.45H437.397V100.2H437.147ZM437.147 93H437.397V92.75H437.147V93ZM429.947 93V92.75H429.697V93H429.947ZM429.947 98.4V98.65H430.197V98.4H429.947ZM428.147 98.4V98.15H427.897V98.4H428.147ZM428.147 100.2V100.45H428.397V100.2H428.147ZM424.547 100.2H424.297V100.45H424.547V100.2ZM424.547 98.4H424.797V98.15H424.547V98.4ZM422.747 98.4H422.497V98.65H422.747V98.4ZM422.747 93H422.997V92.75H422.747V93ZM415.547 93V92.75H415.297V93H415.547ZM415.547 100.45H417.347V99.95H415.547V100.45ZM417.097 100.2V102H417.597V100.2H417.097ZM417.347 102.25H419.147V101.75H417.347V102.25ZM418.897 102V103.8H419.397V102H418.897ZM419.147 104.05H422.747V103.55H419.147V104.05ZM422.497 103.8V111H422.997V103.8H422.497ZM422.747 111.25H429.947V110.75H422.747V111.25ZM430.197 111V103.8H429.697V111H430.197ZM429.947 104.05H433.547V103.55H429.947V104.05ZM433.797 103.8V102H433.297V103.8H433.797ZM433.547 102.25H435.347V101.75H433.547V102.25ZM435.597 102V100.2H435.097V102H435.597ZM435.347 100.45H437.147V99.95H435.347V100.45ZM437.397 100.2V93H436.897V100.2H437.397ZM437.147 92.75H429.947V93.25H437.147V92.75ZM429.697 93V98.4H430.197V93H429.697ZM429.947 98.15H428.147V98.65H429.947V98.15ZM427.897 98.4V100.2H428.397V98.4H427.897ZM428.147 99.95H424.547V100.45H428.147V99.95ZM424.797 100.2V98.4H424.297V100.2H424.797ZM424.547 98.15H422.747V98.65H424.547V98.15ZM422.997 98.4V93H422.497V98.4H422.997ZM422.747 92.75H415.547V93.25H422.747V92.75ZM415.297 93V100.2H415.797V93H415.297ZM456.961 109.2V108.95H456.711V109.2H456.961ZM458.761 109.2V109.45H459.011V109.2H458.761ZM458.761 94.8H459.011V94.55H458.761V94.8ZM456.961 94.8H456.711V95.05H456.961V94.8ZM456.961 93H457.211V92.75H456.961V93ZM440.761 93V92.75H440.511V93H440.761ZM440.761 94.8V95.05H441.011V94.8H440.761ZM438.961 94.8V94.55H438.711V94.8H438.961ZM438.961 109.2H438.711V109.45H438.961V109.2ZM440.761 109.2H441.011V108.95H440.761V109.2ZM440.761 111H440.511V111.25H440.761V111ZM456.961 111V111.25H457.211V111H456.961ZM451.561 107.4V107.65H451.811V107.4H451.561ZM446.161 107.4H445.911V107.65H446.161V107.4ZM446.161 96.6V96.35H445.911V96.6H446.161ZM451.561 96.6H451.811V96.35H451.561V96.6ZM456.961 109.45H458.761V108.95H456.961V109.45ZM459.011 109.2V94.8H458.511V109.2H459.011ZM458.761 94.55H456.961V95.05H458.761V94.55ZM457.211 94.8V93H456.711V94.8H457.211ZM456.961 92.75H440.761V93.25H456.961V92.75ZM440.511 93V94.8H441.011V93H440.511ZM440.761 94.55H438.961V95.05H440.761V94.55ZM438.711 94.8V109.2H439.211V94.8H438.711ZM438.961 109.45H440.761V108.95H438.961V109.45ZM440.511 109.2V111H441.011V109.2H440.511ZM440.761 111.25H456.961V110.75H440.761V111.25ZM457.211 111V109.2H456.711V111H457.211ZM451.311 103.8V107.4H451.811V103.8H451.311ZM451.561 107.15H446.161V107.65H451.561V107.15ZM446.411 107.4V96.6H445.911V107.4H446.411ZM446.161 96.85H451.561V96.35H446.161V96.85ZM451.311 96.6V100.2H451.811V96.6H451.311ZM451.311 100.2V103.8H451.811V100.2H451.311ZM478.547 109.2V108.95H478.297V109.2H478.547ZM480.347 109.2V109.45H480.597V109.2H480.347ZM480.347 93H480.597V92.75H480.347V93ZM473.147 93V92.75H472.897V93H473.147ZM473.147 107.4V107.65H473.397V107.4H473.147ZM467.747 107.4H467.497V107.65H467.747V107.4ZM467.747 93H467.997V92.75H467.747V93ZM460.547 93V92.75H460.297V93H460.547ZM460.547 109.2H460.297V109.45H460.547V109.2ZM462.347 109.2H462.597V108.95H462.347V109.2ZM462.347 111H462.097V111.25H462.347V111ZM478.547 111V111.25H478.797V111H478.547ZM478.547 109.45H480.347V108.95H478.547V109.45ZM480.597 109.2V93H480.097V109.2H480.597ZM480.347 92.75H473.147V93.25H480.347V92.75ZM472.897 93V107.4H473.397V93H472.897ZM473.147 107.15H467.747V107.65H473.147V107.15ZM467.997 107.4V93H467.497V107.4H467.997ZM467.747 92.75H460.547V93.25H467.747V92.75ZM460.297 93V109.2H460.797V93H460.297ZM460.547 109.45H462.347V108.95H460.547V109.45ZM462.097 109.2V111H462.597V109.2H462.097ZM462.347 111.25H478.547V110.75H462.347V111.25ZM478.797 111V109.2H478.297V111H478.797ZM512.719 109.2V108.95H512.469V109.2H512.719ZM514.519 109.2V109.45H514.769V109.2H514.519ZM514.519 102H514.769V101.75H514.519V102ZM512.719 102H512.469V102.25H512.719V102ZM512.719 100.2H512.969V99.95H512.719V100.2ZM503.719 100.2V99.95H503.469V100.2H503.719ZM503.719 103.8H503.469V104.05H503.719V103.8ZM507.319 103.8H507.569V103.55H507.319V103.8ZM507.319 107.4V107.65H507.569V107.4H507.319ZM501.919 107.4H501.669V107.65H501.919V107.4ZM501.919 96.6V96.35H501.669V96.6H501.919ZM514.519 96.6V96.85H514.769V96.6H514.519ZM514.519 93H514.769V92.75H514.519V93ZM496.519 93V92.75H496.269V93H496.519ZM496.519 94.8V95.05H496.769V94.8H496.519ZM494.719 94.8V94.55H494.469V94.8H494.719ZM494.719 109.2H494.469V109.45H494.719V109.2ZM496.519 109.2H496.769V108.95H496.519V109.2ZM496.519 111H496.269V111.25H496.519V111ZM512.719 111V111.25H512.969V111H512.719ZM512.719 109.45H514.519V108.95H512.719V109.45ZM514.769 109.2V102H514.269V109.2H514.769ZM514.519 101.75H512.719V102.25H514.519V101.75ZM512.969 102V100.2H512.469V102H512.969ZM512.719 99.95H503.719V100.45H512.719V99.95ZM503.469 100.2V103.8H503.969V100.2H503.469ZM503.719 104.05H507.319V103.55H503.719V104.05ZM507.069 103.8V107.4H507.569V103.8H507.069ZM507.319 107.15H501.919V107.65H507.319V107.15ZM502.169 107.4V96.6H501.669V107.4H502.169ZM501.919 96.85H514.519V96.35H501.919V96.85ZM514.769 96.6V93H514.269V96.6H514.769ZM514.519 92.75H496.519V93.25H514.519V92.75ZM496.269 93V94.8H496.769V93H496.269ZM496.519 94.55H494.719V95.05H496.519V94.55ZM494.469 94.8V109.2H494.969V94.8H494.469ZM494.719 109.45H496.519V108.95H494.719V109.45ZM496.269 109.2V111H496.769V109.2H496.269ZM496.519 111.25H512.719V110.75H496.519V111.25ZM512.969 111V109.2H512.469V111H512.969ZM518.105 111H517.855V111.25H518.105V111ZM536.105 111V111.25H536.355V111H536.105ZM536.105 107.4H536.355V107.15H536.105V107.4ZM523.505 107.4H523.255V107.65H523.505V107.4ZM523.505 103.8V103.55H523.255V103.8H523.505ZM528.905 103.8V104.05H529.155V103.8H528.905ZM528.905 100.2H529.155V99.95H528.905V100.2ZM523.505 100.2H523.255V100.45H523.505V100.2ZM523.505 96.6V96.35H523.255V96.6H523.505ZM536.105 96.6V96.85H536.355V96.6H536.105ZM536.105 93H536.355V92.75H536.105V93ZM518.105 93V92.75H517.855V93H518.105ZM518.105 94.8V95.05H518.355V94.8H518.105ZM516.305 94.8V94.55H516.055V94.8H516.305ZM516.305 109.2H516.055V109.45H516.305V109.2ZM518.105 109.2H518.355V108.95H518.105V109.2ZM518.105 111.25H536.105V110.75H518.105V111.25ZM536.355 111V107.4H535.855V111H536.355ZM536.105 107.15H523.505V107.65H536.105V107.15ZM523.755 107.4V103.8H523.255V107.4H523.755ZM523.505 104.05H528.905V103.55H523.505V104.05ZM529.155 103.8V100.2H528.655V103.8H529.155ZM528.905 99.95H523.505V100.45H528.905V99.95ZM523.755 100.2V96.6H523.255V100.2H523.755ZM523.505 96.85H536.105V96.35H523.505V96.85ZM536.355 96.6V93H535.855V96.6H536.355ZM536.105 92.75H518.105V93.25H536.105V92.75ZM517.855 93V94.8H518.355V93H517.855ZM518.105 94.55H516.305V95.05H518.105V94.55ZM516.055 94.8V109.2H516.555V94.8H516.055ZM516.305 109.45H518.105V108.95H516.305V109.45ZM517.855 109.2V111H518.355V109.2H517.855ZM550.491 96.6V96.35H550.241V96.6H550.491ZM555.891 96.6V96.85H556.141V96.6H555.891ZM555.891 93H556.141V92.75H555.891V93ZM537.891 93V92.75H537.641V93H537.891ZM537.891 96.6H537.641V96.85H537.891V96.6ZM543.291 96.6H543.541V96.35H543.291V96.6ZM543.291 111H543.041V111.25H543.291V111ZM550.491 111V111.25H550.741V111H550.491ZM550.491 96.85H555.891V96.35H550.491V96.85ZM556.141 96.6V93H555.641V96.6H556.141ZM555.891 92.75H537.891V93.25H555.891V92.75ZM537.641 93V96.6H538.141V93H537.641ZM537.891 96.85H543.291V96.35H537.891V96.85ZM543.041 96.6V111H543.541V96.6H543.041ZM543.291 111.25H550.491V110.75H543.291V111.25ZM550.741 111V96.6H550.241V111H550.741ZM577.47 109.2V108.95H577.22V109.2H577.47ZM579.27 109.2V109.45H579.52V109.2H579.27ZM579.27 107.4V107.15H579.02V107.4H579.27ZM581.07 107.4V107.65H581.32V107.4H581.07ZM581.07 105.6V105.35H580.82V105.6H581.07ZM582.87 105.6H583.12V105.35H582.87V105.6ZM582.87 107.4H582.62V107.65H582.87V107.4ZM584.67 107.4H584.92V107.15H584.67V107.4ZM584.67 109.2H584.42V109.45H584.67V109.2ZM586.47 109.2H586.72V108.95H586.47V109.2ZM586.47 111H586.22V111.25H586.47V111ZM593.67 111V111.25H593.92V111H593.67ZM593.67 93H593.92V92.75H593.67V93ZM586.47 93V92.75H586.22V93H586.47ZM586.47 102V102.25H586.72V102H586.47ZM584.67 102H584.42V102.25H584.67V102ZM584.67 100.2H584.92V99.95H584.67V100.2ZM582.87 100.2H582.62V100.45H582.87V100.2ZM582.87 98.4H583.12V98.15H582.87V98.4ZM581.07 98.4V98.15H580.82V98.4H581.07ZM581.07 100.2V100.45H581.32V100.2H581.07ZM579.27 100.2V99.95H579.02V100.2H579.27ZM579.27 102V102.25H579.52V102H579.27ZM577.47 102H577.22V102.25H577.47V102ZM577.47 93H577.72V92.75H577.47V93ZM570.27 93V92.75H570.02V93H570.27ZM570.27 111H570.02V111.25H570.27V111ZM577.47 111V111.25H577.72V111H577.47ZM577.47 109.45H579.27V108.95H577.47V109.45ZM579.52 109.2V107.4H579.02V109.2H579.52ZM579.27 107.65H581.07V107.15H579.27V107.65ZM581.32 107.4V105.6H580.82V107.4H581.32ZM581.07 105.85H582.87V105.35H581.07V105.85ZM582.62 105.6V107.4H583.12V105.6H582.62ZM582.87 107.65H584.67V107.15H582.87V107.65ZM584.42 107.4V109.2H584.92V107.4H584.42ZM584.67 109.45H586.47V108.95H584.67V109.45ZM586.22 109.2V111H586.72V109.2H586.22ZM586.47 111.25H593.67V110.75H586.47V111.25ZM593.92 111V93H593.42V111H593.92ZM593.67 92.75H586.47V93.25H593.67V92.75ZM586.22 93V102H586.72V93H586.22ZM586.47 101.75H584.67V102.25H586.47V101.75ZM584.92 102V100.2H584.42V102H584.92ZM584.67 99.95H582.87V100.45H584.67V99.95ZM583.12 100.2V98.4H582.62V100.2H583.12ZM582.87 98.15H581.07V98.65H582.87V98.15ZM580.82 98.4V100.2H581.32V98.4H580.82ZM581.07 99.95H579.27V100.45H581.07V99.95ZM579.02 100.2V102H579.52V100.2H579.02ZM579.27 101.75H577.47V102.25H579.27V101.75ZM577.72 102V93H577.22V102H577.72ZM577.47 92.75H570.27V93.25H577.47V92.75ZM570.02 93V111H570.52V93H570.02ZM570.27 111.25H577.47V110.75H570.27V111.25ZM577.72 111V109.2H577.22V111H577.72ZM602.677 103.8V103.55H602.427V103.8H602.677ZM608.077 103.8H608.327V103.55H608.077V103.8ZM608.077 111H607.827V111.25H608.077V111ZM615.277 111V111.25H615.527V111H615.277ZM615.277 94.8H615.527V94.55H615.277V94.8ZM613.477 94.8H613.227V95.05H613.477V94.8ZM613.477 93H613.727V92.75H613.477V93ZM597.277 93V92.75H597.027V93H597.277ZM597.277 94.8V95.05H597.527V94.8H597.277ZM595.477 94.8V94.55H595.227V94.8H595.477ZM595.477 111H595.227V111.25H595.477V111ZM602.677 111V111.25H602.927V111H602.677ZM602.677 96.6V96.35H602.427V96.6H602.677ZM608.077 96.6H608.327V96.35H608.077V96.6ZM608.077 100.2V100.45H608.327V100.2H608.077ZM602.677 100.2H602.427V100.45H602.677V100.2ZM602.677 104.05H608.077V103.55H602.677V104.05ZM607.827 103.8V111H608.327V103.8H607.827ZM608.077 111.25H615.277V110.75H608.077V111.25ZM615.527 111V94.8H615.027V111H615.527ZM615.277 94.55H613.477V95.05H615.277V94.55ZM613.727 94.8V93H613.227V94.8H613.727ZM613.477 92.75H608.077V93.25H613.477V92.75ZM608.077 92.75H597.277V93.25H608.077V92.75ZM597.027 93V94.8H597.527V93H597.027ZM597.277 94.55H595.477V95.05H597.277V94.55ZM595.227 94.8V111H595.727V94.8H595.227ZM595.477 111.25H602.677V110.75H595.477V111.25ZM602.927 111V103.8H602.427V111H602.927ZM602.677 96.85H608.077V96.35H602.677V96.85ZM607.827 96.6V100.2H608.327V96.6H607.827ZM608.077 99.95H602.677V100.45H608.077V99.95ZM602.927 100.2V96.6H602.427V100.2H602.927ZM617.062 111H616.812V111.25H617.062V111ZM635.062 111V111.25H635.312V111H635.062ZM635.062 109.2V108.95H634.812V109.2H635.062ZM636.863 109.2V109.45H637.113V109.2H636.863ZM636.863 102H637.113V101.75H636.863V102ZM635.062 102H634.812V102.25H635.062V102ZM635.062 100.2H635.312V99.95H635.062V100.2ZM624.263 100.2H624.013V100.45H624.263V100.2ZM624.263 96.6V96.35H624.013V96.6H624.263ZM636.863 96.6V96.85H637.113V96.6H636.863ZM636.863 93H637.113V92.75H636.863V93ZM618.863 93V92.75H618.613V93H618.863ZM618.863 94.8V95.05H619.113V94.8H618.863ZM617.062 94.8V94.55H616.812V94.8H617.062ZM617.062 102H616.812V102.25H617.062V102ZM618.863 102H619.113V101.75H618.863V102ZM618.863 103.8H618.613V104.05H618.863V103.8ZM629.663 103.8H629.913V103.55H629.663V103.8ZM629.663 107.4V107.65H629.913V107.4H629.663ZM617.062 107.4V107.15H616.812V107.4H617.062ZM617.062 111.25H635.062V110.75H617.062V111.25ZM635.312 111V109.2H634.812V111H635.312ZM635.062 109.45H636.863V108.95H635.062V109.45ZM637.113 109.2V102H636.613V109.2H637.113ZM636.863 101.75H635.062V102.25H636.863V101.75ZM635.312 102V100.2H634.812V102H635.312ZM635.062 99.95H629.663V100.45H635.062V99.95ZM629.663 99.95H624.263V100.45H629.663V99.95ZM624.513 100.2V96.6H624.013V100.2H624.513ZM624.263 96.85H636.863V96.35H624.263V96.85ZM637.113 96.6V93H636.613V96.6H637.113ZM636.863 92.75H618.863V93.25H636.863V92.75ZM618.613 93V94.8H619.113V93H618.613ZM618.863 94.55H617.062V95.05H618.863V94.55ZM616.812 94.8V102H617.312V94.8H616.812ZM617.062 102.25H618.863V101.75H617.062V102.25ZM618.613 102V103.8H619.113V102H618.613ZM618.863 104.05H629.663V103.55H618.863V104.05ZM629.413 103.8V107.4H629.913V103.8H629.413ZM629.663 107.15H617.062V107.65H629.663V107.15ZM616.812 107.4V111H617.312V107.4H616.812ZM651.248 96.6V96.35H650.998V96.6H651.248ZM656.648 96.6V96.85H656.898V96.6H656.648ZM656.648 93H656.898V92.75H656.648V93ZM638.648 93V92.75H638.398V93H638.648ZM638.648 96.6H638.398V96.85H638.648V96.6ZM644.048 96.6H644.298V96.35H644.048V96.6ZM644.048 111H643.798V111.25H644.048V111ZM651.248 111V111.25H651.498V111H651.248ZM651.248 96.85H656.648V96.35H651.248V96.85ZM656.898 96.6V93H656.398V96.6H656.898ZM656.648 92.75H638.648V93.25H656.648V92.75ZM638.398 93V96.6H638.898V93H638.398ZM638.648 96.85H644.048V96.35H638.648V96.85ZM643.798 96.6V111H644.298V96.6H643.798ZM644.048 111.25H651.248V110.75H644.048V111.25ZM651.498 111V96.6H650.998V111H651.498ZM660.241 111H659.991V111.25H660.241V111ZM678.241 111V111.25H678.491V111H678.241ZM678.241 107.4H678.491V107.15H678.241V107.4ZM665.641 107.4H665.391V107.65H665.641V107.4ZM665.641 103.8V103.55H665.391V103.8H665.641ZM671.041 103.8V104.05H671.291V103.8H671.041ZM671.041 100.2H671.291V99.95H671.041V100.2ZM665.641 100.2H665.391V100.45H665.641V100.2ZM665.641 96.6V96.35H665.391V96.6H665.641ZM678.241 96.6V96.85H678.491V96.6H678.241ZM678.241 93H678.491V92.75H678.241V93ZM660.241 93V92.75H659.991V93H660.241ZM660.241 94.8V95.05H660.491V94.8H660.241ZM658.441 94.8V94.55H658.191V94.8H658.441ZM658.441 109.2H658.191V109.45H658.441V109.2ZM660.241 109.2H660.491V108.95H660.241V109.2ZM660.241 111.25H678.241V110.75H660.241V111.25ZM678.491 111V107.4H677.991V111H678.491ZM678.241 107.15H665.641V107.65H678.241V107.15ZM665.891 107.4V103.8H665.391V107.4H665.891ZM665.641 104.05H671.041V103.55H665.641V104.05ZM671.291 103.8V100.2H670.791V103.8H671.291ZM671.041 99.95H665.641V100.45H671.041V99.95ZM665.891 100.2V96.6H665.391V100.2H665.891ZM665.641 96.85H678.241V96.35H665.641V96.85ZM678.491 96.6V93H677.991V96.6H678.491ZM678.241 92.75H660.241V93.25H678.241V92.75ZM659.991 93V94.8H660.491V93H659.991ZM660.241 94.55H658.441V95.05H660.241V94.55ZM658.191 94.8V109.2H658.691V94.8H658.191ZM658.441 109.45H660.241V108.95H658.441V109.45ZM659.991 109.2V111H660.491V109.2H659.991ZM696.227 109.2V108.95H695.977V109.2H696.227ZM698.027 109.2V109.45H698.277V109.2H698.027ZM698.027 107.4V107.15H697.777V107.4H698.027ZM699.827 107.4V107.65H700.077V107.4H699.827ZM699.827 96.6H700.077V96.35H699.827V96.6ZM698.027 96.6H697.777V96.85H698.027V96.6ZM698.027 94.8H698.277V94.55H698.027V94.8ZM696.227 94.8H695.977V95.05H696.227V94.8ZM696.227 93H696.477V92.75H696.227V93ZM680.027 93V92.75H679.777V93H680.027ZM680.027 111H679.777V111.25H680.027V111ZM696.227 111V111.25H696.477V111H696.227ZM690.827 98.4H690.577V98.65H690.827V98.4ZM692.627 98.4H692.877V98.15H692.627V98.4ZM692.627 105.6V105.85H692.877V105.6H692.627ZM690.827 105.6V105.35H690.577V105.6H690.827ZM690.827 107.4V107.65H691.077V107.4H690.827ZM687.227 107.4H686.977V107.65H687.227V107.4ZM687.227 96.6V96.35H686.977V96.6H687.227ZM690.827 96.6H691.077V96.35H690.827V96.6ZM696.227 109.45H698.027V108.95H696.227V109.45ZM698.277 109.2V107.4H697.777V109.2H698.277ZM698.027 107.65H699.827V107.15H698.027V107.65ZM700.077 107.4V96.6H699.577V107.4H700.077ZM699.827 96.35H698.027V96.85H699.827V96.35ZM698.277 96.6V94.8H697.777V96.6H698.277ZM698.027 94.55H696.227V95.05H698.027V94.55ZM696.477 94.8V93H695.977V94.8H696.477ZM696.227 92.75H692.627V93.25H696.227V92.75ZM692.627 92.75H690.827V93.25H692.627V92.75ZM690.827 92.75H680.027V93.25H690.827V92.75ZM679.777 93V111H680.277V93H679.777ZM680.027 111.25H696.227V110.75H680.027V111.25ZM696.477 111V109.2H695.977V111H696.477ZM690.827 98.65H692.627V98.15H690.827V98.65ZM692.377 98.4V105.6H692.877V98.4H692.377ZM692.627 105.35H690.827V105.85H692.627V105.35ZM690.577 105.6V107.4H691.077V105.6H690.577ZM690.827 107.15H687.227V107.65H690.827V107.15ZM687.477 107.4V96.6H686.977V107.4H687.477ZM687.227 96.85H690.827V96.35H687.227V96.85ZM690.577 96.6V98.4H691.077V96.6H690.577Z" fill="black"/>
<path d="M189 55H244V45H189V55Z" fill="#F6D527"/>
<path d="M189 55H187V57H189V55ZM244 55V57H246V55H244ZM244 45H246V43H244V45ZM189 45V43H187V45H189ZM189 57H244V53H189V57ZM246 55V45H242V55H246ZM244 43H189V47H244V43ZM187 45V55H191V45H187Z" fill="black"/>
</svg>
